<svg width="24" height="24" viewBox="0 0 24 24" fill="none" xmlns="http://www.w3.org/2000/svg">
<path d="M12.8978 0.45C12.8975 0.45 12.8971 0.449859 12.8969 0.449612C12.2969 -0.15 11.3371 -0.149871 10.7373 0.45L0.45 10.7373C-0.15 11.3373 -0.15 12.2973 0.45 12.8973L9.05291 21.498L11.0768 23.6065C11.3181 23.8579 11.6515 24 12 24C12.3492 24 12.6842 23.8613 12.9311 23.6143L23.6202 12.9252C23.8634 12.6821 24 12.3523 24 12.0084C24 11.6546 23.8554 11.3162 23.5998 11.0716L21.4947 9.05727L12.8987 0.450386C12.8985 0.450139 12.8982 0.45 12.8978 0.45Z" fill="#F07606"/>
<path d="M7.44279 6.75539L11.3482 10.6608C11.6101 10.9227 12.0246 10.9227 12.2755 10.6499L16.181 6.74448C16.4428 6.49357 16.4428 6.07903 16.181 5.81721L12.2755 1.91175C12.2153 1.84967 12.1433 1.8003 12.0636 1.76659C11.984 1.73289 11.8984 1.71552 11.8119 1.71552C11.7254 1.71552 11.6398 1.73289 11.5602 1.76659C11.4805 1.8003 11.4085 1.84967 11.3482 1.91175L7.44279 5.82812C7.18098 6.07903 7.18098 6.49357 7.44279 6.75539ZM7.78316 18.1641L11.6886 22.0696C11.9504 22.3205 12.365 22.3205 12.6159 22.0696L16.5213 18.1641C16.7832 17.9132 16.7832 17.4987 16.5213 17.2368L12.6159 13.3314C12.5557 13.2693 12.4836 13.2199 12.404 13.1862C12.3243 13.1525 12.2387 13.1352 12.1522 13.1352C12.0658 13.1352 11.9802 13.1525 11.9005 13.1862C11.8209 13.2199 11.7488 13.2693 11.6886 13.3314L7.78316 17.2368C7.52134 17.4878 7.52134 17.9023 7.78316 18.1641ZM17.2337 16.5343L13.3282 12.6288C13.2662 12.5686 13.2168 12.4966 13.1831 12.4169C13.1494 12.3373 13.132 12.2517 13.132 12.1652C13.132 12.0787 13.1494 11.9931 13.1831 11.9135C13.2168 11.8338 13.2662 11.7618 13.3282 11.7016L17.2337 7.79612C17.4955 7.5343 17.9101 7.5343 18.161 7.79612L22.0664 11.7016C22.3282 11.9634 22.3282 12.3779 22.0664 12.6288L18.161 16.5343C17.8992 16.7961 17.4846 16.7961 17.2337 16.5343ZM1.91298 12.2852L5.81843 16.1907C6.08025 16.4525 6.49479 16.4525 6.7457 16.1907L10.6512 12.2852C10.913 12.0343 10.913 11.6198 10.6512 11.3579L6.7457 7.45248C6.6855 7.39039 6.61344 7.34103 6.5338 7.30732C6.45415 7.27361 6.36855 7.25624 6.28207 7.25624C6.19558 7.25624 6.10998 7.27361 6.03034 7.30732C5.9507 7.34103 5.87864 7.39039 5.81843 7.45248L1.91298 11.3579C1.65116 11.6088 1.65116 12.0234 1.91298 12.2852Z" fill="#A55003"/>
<path d="M12.2863 1.91188L16.1918 5.81733C16.3227 5.94824 16.3881 6.12279 16.3881 6.28642H7.25723C7.25723 6.11188 7.32268 5.94824 7.45359 5.81733L11.359 1.91188C11.61 1.65006 12.0245 1.65006 12.2863 1.91188ZM6.75541 7.44279L10.6609 11.3482C10.7918 11.4792 10.8572 11.6428 10.8572 11.8173H1.72632C1.72632 11.6428 1.79177 11.4792 1.92268 11.3482L5.82814 7.44279C6.07905 7.18097 6.49359 7.18097 6.75541 7.44279ZM16.5321 17.2261L12.6267 13.3206C12.5665 13.2585 12.4944 13.2092 12.4148 13.1754C12.3351 13.1417 12.2495 13.1244 12.163 13.1244C12.0766 13.1244 11.991 13.1417 11.9113 13.1754C11.8317 13.2092 11.7596 13.2585 11.6994 13.3206L7.79396 17.2261C7.66305 17.357 7.59759 17.5206 7.59759 17.6952H16.7394C16.7311 17.5185 16.6572 17.3512 16.5321 17.2261ZM18.162 7.78642L22.0674 11.6919C22.1983 11.8228 22.2638 11.9864 22.2638 12.161H13.1329C13.1329 11.9864 13.1983 11.8228 13.3292 11.6919L17.2347 7.78642C17.4856 7.52461 17.9001 7.52461 18.162 7.78642Z" fill="#FEA554"/>
<path d="M11.8172 2.78448L8.31539 6.2863L11.8172 9.78812L15.319 6.2863L11.8172 2.78448ZM2.78448 11.8172L6.2863 15.319L9.78812 11.8172L6.2863 8.31539L2.78448 11.8172ZM12.1663 21.199L8.65358 17.6972L12.1663 14.1954L15.6681 17.6972L12.1663 21.199ZM14.1954 12.1663L17.6972 15.6681L21.199 12.1663L17.6972 8.65358L14.1954 12.1663Z" fill="#F07606"/>
</svg>
