<svg width="22" height="22" viewBox="0 0 22 22" fill="none" xmlns="http://www.w3.org/2000/svg">
<circle cx="11" cy="11" r="11" fill="#321E02"/>
<path d="M11.4115 5.70625C11.4113 5.70625 11.4112 5.70619 11.4111 5.70607C11.1361 5.43125 10.6962 5.43131 10.4212 5.70625L5.70625 10.4213C5.43125 10.6963 5.43125 11.1363 5.70625 11.4113L9.64925 15.3533L10.5769 16.3196C10.6875 16.4349 10.8403 16.5 11 16.5C11.1601 16.5 11.3136 16.4364 11.4268 16.3232L16.3259 11.4241C16.4374 11.3126 16.5 11.1615 16.5 11.0039C16.5 10.8417 16.4337 10.6866 16.3166 10.5745L15.3517 9.65125L11.4119 5.70643C11.4118 5.70631 11.4117 5.70625 11.4115 5.70625Z" fill="#F07606"/>
<path d="M8.91124 8.59622L10.7012 10.3862C10.8212 10.5062 11.0112 10.5062 11.1262 10.3812L12.9162 8.59122C13.0362 8.47622 13.0362 8.28622 12.9162 8.16622L11.1262 6.37622C11.0986 6.34776 11.0656 6.32514 11.0291 6.30969C10.9926 6.29424 10.9534 6.28628 10.9137 6.28628C10.8741 6.28628 10.8349 6.29424 10.7984 6.30969C10.7619 6.32514 10.7288 6.34776 10.7012 6.37622L8.91124 8.17122C8.79124 8.28622 8.79124 8.47622 8.91124 8.59622ZM9.06724 13.8252L10.8572 15.6152C10.9772 15.7302 11.1672 15.7302 11.2822 15.6152L13.0722 13.8252C13.1922 13.7102 13.1922 13.5202 13.0722 13.4002L11.2822 11.6102C11.2546 11.5818 11.2216 11.5591 11.1851 11.5437C11.1486 11.5282 11.1094 11.5203 11.0697 11.5203C11.0301 11.5203 10.9909 11.5282 10.9544 11.5437C10.9179 11.5591 10.8848 11.5818 10.8572 11.6102L9.06724 13.4002C8.94724 13.5152 8.94724 13.7052 9.06724 13.8252ZM13.3987 13.0782L11.6087 11.2882C11.5803 11.2606 11.5577 11.2276 11.5422 11.1911C11.5268 11.1546 11.5188 11.1154 11.5188 11.0757C11.5188 11.0361 11.5268 10.9968 11.5422 10.9603C11.5577 10.9238 11.5803 10.8908 11.6087 10.8632L13.3987 9.07322C13.5187 8.95322 13.7087 8.95322 13.8237 9.07322L15.6137 10.8632C15.7337 10.9832 15.7337 11.1732 15.6137 11.2882L13.8237 13.0782C13.7037 13.1982 13.5137 13.1982 13.3987 13.0782ZM6.37674 11.1307L8.16674 12.9207C8.28674 13.0407 8.47674 13.0407 8.59174 12.9207L10.3817 11.1307C10.5017 11.0157 10.5017 10.8257 10.3817 10.7057L8.59174 8.91572C8.56415 8.88726 8.53112 8.86464 8.49462 8.84919C8.45812 8.83374 8.41888 8.82578 8.37924 8.82578C8.33961 8.82578 8.30037 8.83374 8.26387 8.84919C8.22736 8.86464 8.19434 8.88726 8.16674 8.91572L6.37674 10.7057C6.25674 10.8207 6.25674 11.0107 6.37674 11.1307Z" fill="#A55003"/>
<path d="M11.1311 6.37628L12.9211 8.16628C12.9811 8.22628 13.0111 8.30628 13.0111 8.38128H8.82614C8.82614 8.30128 8.85614 8.22628 8.91614 8.16628L10.7061 6.37628C10.8211 6.25628 11.0111 6.25628 11.1311 6.37628ZM8.59614 8.91128L10.3861 10.7013C10.4461 10.7613 10.4761 10.8363 10.4761 10.9163H6.29114C6.29114 10.8363 6.32114 10.7613 6.38114 10.7013L8.17114 8.91128C8.28614 8.79128 8.47614 8.79128 8.59614 8.91128ZM13.0771 13.3953L11.2871 11.6053C11.2595 11.5768 11.2265 11.5542 11.19 11.5387C11.1535 11.5233 11.1143 11.5153 11.0746 11.5153C11.035 11.5153 10.9958 11.5233 10.9593 11.5387C10.9228 11.5542 10.8897 11.5768 10.8621 11.6053L9.07214 13.3953C9.01214 13.4553 8.98214 13.5303 8.98214 13.6103H13.1721C13.1683 13.5293 13.1344 13.4526 13.0771 13.3953ZM13.8241 9.06878L15.6141 10.8588C15.6741 10.9188 15.7041 10.9938 15.7041 11.0738H11.5191C11.5191 10.9938 11.5491 10.9188 11.6091 10.8588L13.3991 9.06878C13.5141 8.94878 13.7041 8.94878 13.8241 9.06878Z" fill="#FEA554"/>
<path d="M10.9161 6.77622L9.31112 8.38122L10.9161 9.98622L12.5211 8.38122L10.9161 6.77622ZM6.77612 10.9162L8.38112 12.5212L9.98612 10.9162L8.38112 9.31122L6.77612 10.9162ZM11.0761 15.2162L9.46612 13.6112L11.0761 12.0062L12.6811 13.6112L11.0761 15.2162ZM12.0061 11.0762L13.6111 12.6812L15.2161 11.0762L13.6111 9.46622L12.0061 11.0762Z" fill="#F07606"/>
</svg>
