<svg width="50" height="50" viewBox="0 0 50 50" fill="none" xmlns="http://www.w3.org/2000/svg">
<circle cx="25" cy="25" r="25" fill="#3F2706"/>
<path d="M25.9352 12.9688C25.9349 12.9688 25.9345 12.9686 25.9343 12.9683C25.3092 12.3438 24.3095 12.3439 23.6847 12.9688L12.9688 23.6847C12.3438 24.3097 12.3438 25.3097 12.9688 25.9347L21.9301 34.8938L24.0384 37.0901C24.2897 37.352 24.637 37.5 25 37.5C25.3638 37.5 25.7127 37.3555 25.9699 37.0982L37.1044 25.9638C37.3577 25.7105 37.5 25.3669 37.5 25.0088C37.5 24.6402 37.3494 24.2877 37.0832 24.0329L34.8903 21.9347L25.9362 12.9692C25.9359 12.9689 25.9356 12.9688 25.9352 12.9688Z" fill="#F07606"/>
<path d="M20.2529 19.5369L24.3211 23.6051C24.5938 23.8778 25.0256 23.8778 25.287 23.5937L29.3552 19.5255C29.6279 19.2641 29.6279 18.8323 29.3552 18.5596L25.287 14.4914C25.2243 14.4267 25.1492 14.3753 25.0663 14.3402C24.9833 14.3051 24.8941 14.287 24.8041 14.287C24.714 14.287 24.6248 14.3051 24.5418 14.3402C24.4589 14.3753 24.3838 14.4267 24.3211 14.4914L20.2529 18.571C19.9802 18.8323 19.9802 19.2641 20.2529 19.5369ZM20.6075 31.421L24.6756 35.4891C24.9484 35.7505 25.3802 35.7505 25.6416 35.4891L29.7097 31.421C29.9825 31.1596 29.9825 30.7278 29.7097 30.4551L25.6416 26.3869C25.5788 26.3222 25.5038 26.2708 25.4208 26.2357C25.3379 26.2006 25.2487 26.1825 25.1586 26.1825C25.0685 26.1825 24.9793 26.2006 24.8964 26.2357C24.8134 26.2708 24.7384 26.3222 24.6756 26.3869L20.6075 30.4551C20.3347 30.7164 20.3347 31.1482 20.6075 31.421ZM30.4518 29.7232L26.3836 25.6551C26.3189 25.5923 26.2675 25.5173 26.2324 25.4343C26.1973 25.3514 26.1792 25.2622 26.1792 25.1721C26.1792 25.082 26.1973 24.9928 26.2324 24.9099C26.2675 24.8269 26.3189 24.7519 26.3836 24.6891L30.4518 20.621C30.7245 20.3482 31.1563 20.3482 31.4177 20.621L35.4859 24.6891C35.7586 24.9619 35.7586 25.3937 35.4859 25.6551L31.4177 29.7232C31.145 29.996 30.7131 29.996 30.4518 29.7232ZM14.4927 25.2971L18.5609 29.3653C18.8336 29.638 19.2654 29.638 19.5268 29.3653L23.595 25.2971C23.8677 25.0357 23.8677 24.6039 23.595 24.3312L19.5268 20.263C19.4641 20.1983 19.389 20.1469 19.306 20.1118C19.2231 20.0767 19.1339 20.0586 19.0438 20.0586C18.9537 20.0586 18.8646 20.0767 18.7816 20.1118C18.6987 20.1469 18.6236 20.1983 18.5609 20.263L14.4927 24.3312C14.22 24.5926 14.22 25.0244 14.4927 25.2971Z" fill="#A55003"/>
<path d="M25.2982 14.4915L29.3664 18.5597C29.5028 18.6961 29.571 18.8779 29.571 19.0484H20.0596C20.0596 18.8665 20.1278 18.6961 20.2642 18.5597L24.3323 14.4915C24.5937 14.2188 25.0255 14.2188 25.2982 14.4915ZM19.5369 20.2529L23.6051 24.3211C23.7414 24.4575 23.8096 24.6279 23.8096 24.8097H14.2982C14.2982 24.6279 14.3664 24.4575 14.5028 24.3211L18.571 20.2529C18.8323 19.9802 19.2642 19.9802 19.5369 20.2529ZM29.721 30.4438L25.6528 26.3756C25.5901 26.311 25.515 26.2595 25.4321 26.2244C25.3491 26.1893 25.2599 26.1712 25.1698 26.1712C25.0798 26.1712 24.9906 26.1893 24.9076 26.2244C24.8247 26.2595 24.7496 26.311 24.6869 26.3756L20.6187 30.4438C20.4823 30.5802 20.4142 30.7506 20.4142 30.9325H29.9369C29.9282 30.7484 29.8512 30.5742 29.721 30.4438ZM31.4187 20.6109L35.4869 24.679C35.6232 24.8154 35.6914 24.9859 35.6914 25.1677H26.1801C26.1801 24.9859 26.2482 24.8154 26.3846 24.679L30.4528 20.6109C30.7142 20.3381 31.146 20.3381 31.4187 20.6109Z" fill="#FEA554"/>
<path d="M24.8096 15.4005L21.1619 19.0482L24.8096 22.696L28.4573 19.0482L24.8096 15.4005ZM15.4005 24.8096L19.0482 28.4573L22.696 24.8096L19.0482 21.1619L15.4005 24.8096ZM25.1732 34.5823L21.5141 30.9346L25.1732 27.2869L28.821 30.9346L25.1732 34.5823ZM27.2869 25.1732L30.9346 28.821L34.5823 25.1732L30.9346 21.5141L27.2869 25.1732Z" fill="#F07606"/>
</svg>
