<svg width="29" height="29" viewBox="0 0 29 29" fill="none" xmlns="http://www.w3.org/2000/svg">
<circle cx="14.5" cy="14.5" r="14.5" fill="#E19C34"/>
<path d="M20.8 9.72727H8.8C8.64087 9.72727 8.48826 9.65544 8.37574 9.52757C8.26321 9.39971 8.2 9.22628 8.2 9.04545C8.2 8.86463 8.26321 8.6912 8.37574 8.56334C8.48826 8.43547 8.64087 8.36364 8.8 8.36364H19C19.1591 8.36364 19.3117 8.2918 19.4243 8.16394C19.5368 8.03607 19.6 7.86265 19.6 7.68182C19.6 7.50099 19.5368 7.32757 19.4243 7.1997C19.3117 7.07183 19.1591 7 19 7H8.8C8.32322 7.00224 7.86653 7.21847 7.52939 7.60158C7.19225 7.98469 7.00197 8.50366 7 9.04545V19.9545C7.00197 20.4963 7.19225 21.0153 7.52939 21.3984C7.86653 21.7815 8.32322 21.9978 8.8 22H20.8C21.1183 22 21.4235 21.8563 21.6485 21.6006C21.8736 21.3449 22 20.998 22 20.6364V11.0909C22 10.7293 21.8736 10.3824 21.6485 10.1267C21.4235 9.87094 21.1183 9.72727 20.8 9.72727ZM20.8 20.6364H8.8C8.64087 20.6364 8.48826 20.5645 8.37574 20.4367C8.26321 20.3088 8.2 20.1354 8.2 19.9545V10.9716C8.39243 11.0505 8.59544 11.0908 8.8 11.0909H20.8V20.6364ZM17.2 15.8636C17.2 15.6614 17.2528 15.4636 17.3517 15.2954C17.4506 15.1273 17.5911 14.9962 17.7556 14.9188C17.92 14.8414 18.101 14.8211 18.2756 14.8606C18.4502 14.9 18.6105 14.9974 18.7364 15.1405C18.8623 15.2835 18.948 15.4657 18.9827 15.6641C19.0174 15.8625 18.9996 16.0681 18.9315 16.255C18.8634 16.4419 18.748 16.6016 18.6 16.714C18.452 16.8264 18.278 16.8864 18.1 16.8864C17.8613 16.8864 17.6324 16.7786 17.4636 16.5868C17.2948 16.395 17.2 16.1349 17.2 15.8636Z" fill="#3F2706"/>
</svg>
