<svg width="19" height="19" viewBox="0 0 19 19" fill="none" xmlns="http://www.w3.org/2000/svg">
<path d="M18.7217 17.3679C18.9 17.5485 19 17.7924 19 18.0467C19 18.3009 18.9 18.5449 18.7217 18.7255C18.5402 18.9016 18.2976 19 18.0452 19C17.7927 19 17.5502 18.9016 17.3687 18.7255L9.5 10.8179L1.6313 18.7255C1.44982 18.9016 1.20725 19 0.954807 19C0.702361 19 0.459793 18.9016 0.278312 18.7255C0.10002 18.5449 0 18.3009 0 18.0467C0 17.7924 0.10002 17.5485 0.278312 17.3679L8.15888 9.47223L0.278312 1.5766C0.126908 1.39149 0.0495339 1.15649 0.0612409 0.917307C0.0729479 0.678125 0.172899 0.451864 0.341652 0.282533C0.510405 0.113202 0.735894 0.0129092 0.97426 0.00116217C1.21263 -0.0105849 1.44682 0.0670537 1.6313 0.218977L9.5 8.12652L17.3687 0.218977C17.5532 0.0670537 17.7874 -0.0105849 18.0257 0.00116217C18.2641 0.0129092 18.4896 0.113202 18.6583 0.282533C18.8271 0.451864 18.9271 0.678125 18.9388 0.917307C18.9505 1.15649 18.8731 1.39149 18.7217 1.5766L10.8411 9.47223L18.7217 17.3679Z" fill="#F07606"/>
</svg>
